<?xml version="1.0" encoding="utf-8"?>
<!-- Generator: Adobe Illustrator 24.3.0, SVG Export Plug-In . SVG Version: 6.00 Build 0)  -->
<svg version="1.1" id="_x32_-linje_logo_Vestfold_og_Telemark"
	 xmlns="http://www.w3.org/2000/svg" xmlns:xlink="http://www.w3.org/1999/xlink" x="0px" y="0px" viewBox="0 0 239.47 94.04"
	 style="enable-background:new 0 0 239.47 94.04;" xml:space="preserve">
<g>
	<g>
		<g>
			<path fill="white" d="M73.41,39.88c0,0.82-0.3,1.47-0.9,1.94c-0.6,0.47-1.42,0.71-2.47,0.71s-1.91-0.16-2.58-0.49V40.6
				c0.42,0.2,0.87,0.36,1.35,0.47c0.48,0.11,0.92,0.17,1.33,0.17c0.6,0,1.04-0.11,1.33-0.34c0.29-0.23,0.43-0.54,0.43-0.92
				c0-0.35-0.13-0.64-0.39-0.88s-0.8-0.53-1.62-0.86c-0.85-0.34-1.44-0.73-1.79-1.17s-0.52-0.97-0.52-1.59
				c0-0.77,0.27-1.38,0.83-1.83s1.29-0.67,2.22-0.67c0.89,0,1.77,0.2,2.65,0.58l-0.48,1.24c-0.83-0.35-1.56-0.52-2.21-0.52
				c-0.49,0-0.86,0.11-1.12,0.32s-0.38,0.5-0.38,0.85c0,0.24,0.05,0.45,0.15,0.62c0.1,0.17,0.27,0.33,0.5,0.49s0.65,0.35,1.26,0.6
				c0.68,0.28,1.18,0.55,1.5,0.79s0.55,0.52,0.7,0.83C73.34,39.1,73.41,39.46,73.41,39.88z"/>
			<path fill="white" d="M77.66,41.32c0.36,0,0.73-0.06,1.09-0.17v1.12c-0.17,0.07-0.38,0.13-0.64,0.18c-0.26,0.05-0.53,0.07-0.81,0.07
				c-1.41,0-2.12-0.75-2.12-2.23v-3.78h-0.96v-0.66l1.03-0.55l0.51-1.49h0.92v1.56h2v1.13h-2v3.76c0,0.36,0.09,0.62,0.27,0.8
				C77.14,41.24,77.37,41.32,77.66,41.32z"/>
			<path fill="white" d="M84.55,42.4l-0.3-0.98H84.2c-0.34,0.43-0.68,0.72-1.02,0.87s-0.78,0.23-1.32,0.23c-0.69,0-1.23-0.19-1.62-0.56
				c-0.39-0.37-0.58-0.9-0.58-1.58c0-0.72,0.27-1.27,0.81-1.64c0.54-0.37,1.36-0.57,2.46-0.6l1.21-0.04v-0.38
				c0-0.45-0.1-0.78-0.31-1.01c-0.21-0.22-0.53-0.33-0.97-0.33c-0.36,0-0.7,0.05-1.03,0.16c-0.33,0.11-0.65,0.23-0.95,0.37
				l-0.48-1.07c0.38-0.2,0.8-0.35,1.25-0.45s0.88-0.16,1.28-0.16c0.89,0,1.57,0.19,2.02,0.58c0.46,0.39,0.68,1,0.68,1.83v4.73H84.55
				z M82.33,41.39c0.54,0,0.98-0.15,1.3-0.45c0.33-0.3,0.49-0.73,0.49-1.27v-0.61l-0.9,0.04c-0.7,0.03-1.21,0.14-1.53,0.35
				c-0.32,0.21-0.48,0.53-0.48,0.96c0,0.31,0.09,0.56,0.28,0.73C81.68,41.3,81.96,41.39,82.33,41.39z"/>
			<path fill="white" d="M90.32,41.32c0.36,0,0.73-0.06,1.09-0.17v1.12c-0.17,0.07-0.38,0.13-0.64,0.18c-0.26,0.05-0.53,0.07-0.81,0.07
				c-1.41,0-2.12-0.75-2.12-2.23v-3.78h-0.96v-0.66l1.03-0.55l0.51-1.49h0.92v1.56h2v1.13h-2v3.76c0,0.36,0.09,0.62,0.27,0.8
				C89.79,41.24,90.02,41.32,90.32,41.32z"/>
			<path fill="white" d="M97.53,40.4c0,0.69-0.25,1.21-0.75,1.58s-1.21,0.55-2.15,0.55c-0.94,0-1.69-0.14-2.25-0.43v-1.29
				c0.83,0.38,1.59,0.57,2.3,0.57c0.92,0,1.38-0.28,1.38-0.83c0-0.18-0.05-0.33-0.15-0.44c-0.1-0.12-0.27-0.24-0.5-0.37
				s-0.56-0.27-0.97-0.43c-0.81-0.31-1.36-0.63-1.64-0.94c-0.29-0.31-0.43-0.72-0.43-1.22c0-0.6,0.24-1.07,0.73-1.4
				c0.48-0.33,1.14-0.5,1.98-0.5c0.83,0,1.61,0.17,2.34,0.5l-0.48,1.12c-0.76-0.31-1.39-0.47-1.91-0.47c-0.79,0-1.18,0.22-1.18,0.67
				c0,0.22,0.1,0.41,0.31,0.56c0.21,0.15,0.65,0.36,1.34,0.63c0.58,0.22,1,0.43,1.26,0.62s0.46,0.4,0.58,0.64
				S97.53,40.06,97.53,40.4z"/>
			<path fill="white" d="M102.66,36.51h-1.71v5.89h-1.5v-5.89h-1.16v-0.7l1.16-0.46V34.9c0-0.83,0.19-1.44,0.58-1.84c0.39-0.4,0.98-0.6,1.78-0.6
				c0.52,0,1.04,0.09,1.55,0.26l-0.39,1.13c-0.37-0.12-0.72-0.18-1.05-0.18c-0.34,0-0.58,0.1-0.74,0.31
				c-0.15,0.21-0.23,0.52-0.23,0.94v0.46h1.71V36.51z"/>
			<path fill="white" d="M110.08,38.88c0,1.15-0.29,2.04-0.88,2.69s-1.41,0.96-2.46,0.96c-0.66,0-1.24-0.15-1.74-0.44s-0.89-0.72-1.16-1.28
				c-0.27-0.55-0.41-1.2-0.41-1.93c0-1.14,0.29-2.03,0.88-2.67c0.58-0.64,1.41-0.96,2.47-0.96c1.02,0,1.82,0.33,2.41,0.98
				C109.79,36.89,110.08,37.77,110.08,38.88z M104.97,38.88c0,1.62,0.6,2.43,1.8,2.43c1.19,0,1.78-0.81,1.78-2.43
				c0-1.6-0.6-2.41-1.79-2.41c-0.63,0-1.08,0.21-1.36,0.62C105.11,37.51,104.97,38.1,104.97,38.88z"/>
			<path fill="white" d="M115.36,35.25c0.3,0,0.55,0.02,0.74,0.06l-0.15,1.39c-0.21-0.05-0.43-0.08-0.66-0.08c-0.6,0-1.08,0.19-1.45,0.58
				c-0.37,0.39-0.55,0.89-0.55,1.52v3.67h-1.49v-7.02h1.17l0.2,1.24h0.08c0.23-0.42,0.54-0.75,0.91-1
				C114.52,35.38,114.92,35.25,115.36,35.25z"/>
			<path fill="white" d="M119,42.4l-2.67-7.02h1.57l1.43,4.08c0.25,0.69,0.39,1.24,0.45,1.66h0.05c0.04-0.3,0.19-0.86,0.44-1.66l1.43-4.08h1.59
				l-2.68,7.02H119z"/>
			<path fill="white" d="M128.75,42.4l-0.3-0.98h-0.05c-0.34,0.43-0.68,0.72-1.02,0.87s-0.78,0.23-1.32,0.23c-0.69,0-1.23-0.19-1.62-0.56
				c-0.39-0.37-0.58-0.9-0.58-1.58c0-0.72,0.27-1.27,0.81-1.64c0.54-0.37,1.36-0.57,2.46-0.6l1.21-0.04v-0.38
				c0-0.45-0.11-0.78-0.31-1.01c-0.21-0.22-0.53-0.33-0.97-0.33c-0.36,0-0.71,0.05-1.04,0.16c-0.33,0.11-0.65,0.23-0.95,0.37
				l-0.48-1.07c0.38-0.2,0.8-0.35,1.25-0.45s0.88-0.16,1.28-0.16c0.89,0,1.57,0.19,2.02,0.58s0.68,1,0.68,1.83v4.73H128.75z
				 M126.53,41.39c0.54,0,0.98-0.15,1.3-0.45s0.49-0.73,0.49-1.27v-0.61l-0.9,0.04c-0.7,0.03-1.21,0.14-1.53,0.35
				c-0.32,0.21-0.48,0.53-0.48,0.96c0,0.31,0.09,0.56,0.28,0.73C125.88,41.3,126.16,41.39,126.53,41.39z"/>
			<path fill="white" d="M133.39,42.4h-1.49v-9.88h1.49V42.4z"/>
			<path fill="white" d="M138.14,41.32c0.36,0,0.73-0.06,1.09-0.17v1.12c-0.17,0.07-0.38,0.13-0.64,0.18c-0.26,0.05-0.53,0.07-0.81,0.07
				c-1.41,0-2.12-0.75-2.12-2.23v-3.78h-0.96v-0.66l1.03-0.55l0.51-1.49h0.92v1.56h2v1.13h-2v3.76c0,0.36,0.09,0.62,0.27,0.8
				C137.61,41.24,137.85,41.32,138.14,41.32z"/>
			<path fill="white" d="M145.03,42.4l-0.3-0.98h-0.05c-0.34,0.43-0.68,0.72-1.02,0.87s-0.78,0.23-1.32,0.23c-0.69,0-1.23-0.19-1.62-0.56
				c-0.39-0.37-0.58-0.9-0.58-1.58c0-0.72,0.27-1.27,0.81-1.64c0.54-0.37,1.36-0.57,2.46-0.6l1.21-0.04v-0.38
				c0-0.45-0.11-0.78-0.31-1.01c-0.21-0.22-0.53-0.33-0.97-0.33c-0.36,0-0.71,0.05-1.04,0.16c-0.33,0.11-0.65,0.23-0.95,0.37
				l-0.48-1.07c0.38-0.2,0.8-0.35,1.25-0.45s0.88-0.16,1.28-0.16c0.89,0,1.57,0.19,2.02,0.58s0.68,1,0.68,1.83v4.73H145.03z
				 M142.8,41.39c0.54,0,0.98-0.15,1.3-0.45s0.49-0.73,0.49-1.27v-0.61l-0.9,0.04c-0.7,0.03-1.21,0.14-1.53,0.35
				c-0.32,0.21-0.48,0.53-0.48,0.96c0,0.31,0.09,0.56,0.28,0.73C142.15,41.3,142.43,41.39,142.8,41.39z"/>
			<path fill="white" d="M151.73,35.25c0.3,0,0.55,0.02,0.74,0.06l-0.15,1.39c-0.21-0.05-0.43-0.08-0.66-0.08c-0.6,0-1.08,0.19-1.45,0.58
				c-0.37,0.39-0.55,0.89-0.55,1.52v3.67h-1.49v-7.02h1.17l0.2,1.24h0.08c0.23-0.42,0.54-0.75,0.91-1
				C150.9,35.38,151.3,35.25,151.73,35.25z"/>
			<path fill="white" d="M156.85,42.53c-1.09,0-1.95-0.32-2.56-0.96c-0.62-0.64-0.92-1.51-0.92-2.63c0-1.15,0.29-2.05,0.86-2.71
				c0.57-0.66,1.36-0.98,2.36-0.98c0.93,0,1.66,0.28,2.2,0.84c0.54,0.56,0.81,1.34,0.81,2.32v0.81h-4.68
				c0.02,0.68,0.21,1.21,0.55,1.57c0.35,0.37,0.83,0.55,1.47,0.55c0.42,0,0.8-0.04,1.16-0.12s0.74-0.21,1.15-0.39v1.21
				c-0.36,0.17-0.73,0.3-1.1,0.37C157.75,42.49,157.32,42.53,156.85,42.53z M156.57,36.38c-0.47,0-0.85,0.15-1.14,0.45
				c-0.29,0.3-0.46,0.74-0.51,1.31h3.19c-0.01-0.58-0.15-1.02-0.42-1.32C157.42,36.53,157.05,36.38,156.57,36.38z"/>
			<path fill="white" d="M167.45,42.4h-1.5v-4.32c0-0.54-0.11-0.95-0.33-1.21c-0.22-0.27-0.56-0.4-1.04-0.4c-0.63,0-1.09,0.19-1.38,0.56
				s-0.44,1-0.44,1.87v3.5h-1.49v-7.02h1.17l0.21,0.92h0.08c0.21-0.33,0.51-0.59,0.9-0.78c0.39-0.18,0.82-0.27,1.29-0.27
				c1.68,0,2.53,0.86,2.53,2.57V42.4z"/>
			<path fill="white" d="M174.24,40.4c0,0.69-0.25,1.21-0.75,1.58c-0.5,0.37-1.21,0.55-2.14,0.55c-0.94,0-1.69-0.14-2.25-0.43v-1.29
				c0.83,0.38,1.59,0.57,2.3,0.57c0.92,0,1.38-0.28,1.38-0.83c0-0.18-0.05-0.33-0.15-0.44c-0.1-0.12-0.27-0.24-0.5-0.37
				c-0.23-0.13-0.56-0.27-0.97-0.43c-0.81-0.31-1.36-0.63-1.64-0.94c-0.29-0.31-0.43-0.72-0.43-1.22c0-0.6,0.24-1.07,0.73-1.4
				s1.14-0.5,1.98-0.5c0.83,0,1.61,0.17,2.34,0.5l-0.48,1.12c-0.76-0.31-1.39-0.47-1.91-0.47c-0.79,0-1.18,0.22-1.18,0.67
				c0,0.22,0.1,0.41,0.31,0.56s0.65,0.36,1.34,0.63c0.58,0.22,1,0.43,1.26,0.62c0.26,0.19,0.46,0.4,0.58,0.64
				S174.24,40.06,174.24,40.4z"/>
			<path fill="white" d="M71.42,50.51h-1.71v5.89h-1.5v-5.89h-1.16v-0.7l1.16-0.46V48.9c0-0.83,0.19-1.44,0.58-1.84c0.39-0.4,0.98-0.6,1.78-0.6
				c0.52,0,1.04,0.09,1.55,0.26l-0.39,1.13c-0.37-0.12-0.72-0.18-1.05-0.18c-0.34,0-0.58,0.1-0.74,0.31
				c-0.15,0.21-0.23,0.52-0.23,0.94v0.46h1.71V50.51z"/>
			<path fill="white" d="M75.68,56.53c-1.09,0-1.95-0.32-2.56-0.96c-0.62-0.64-0.92-1.51-0.92-2.63c0-1.15,0.29-2.05,0.86-2.71
				c0.57-0.66,1.36-0.98,2.36-0.98c0.93,0,1.66,0.28,2.2,0.84c0.54,0.56,0.81,1.34,0.81,2.32v0.81h-4.68
				c0.02,0.68,0.21,1.21,0.55,1.57s0.84,0.55,1.47,0.55c0.41,0,0.8-0.04,1.16-0.12c0.36-0.08,0.74-0.21,1.15-0.39v1.21
				c-0.36,0.17-0.73,0.3-1.1,0.37C76.59,56.49,76.16,56.53,75.68,56.53z M75.41,50.38c-0.47,0-0.85,0.15-1.14,0.45
				c-0.29,0.3-0.46,0.74-0.51,1.31h3.19c-0.01-0.58-0.15-1.02-0.42-1.32C76.26,50.53,75.89,50.38,75.41,50.38z"/>
			<path fill="white" d="M81.6,56.4h-1.49v-9.88h1.49V56.4z"/>
			<path fill="white" d="M85.22,56.4h-1.49v-9.88h1.49V56.4z"/>
			<path fill="white" d="M90.42,56.53c-1.09,0-1.95-0.32-2.56-0.96c-0.62-0.64-0.92-1.51-0.92-2.63c0-1.15,0.29-2.05,0.86-2.71
				c0.57-0.66,1.36-0.98,2.35-0.98c0.93,0,1.66,0.28,2.2,0.84c0.54,0.56,0.81,1.34,0.81,2.32v0.81h-4.68
				c0.02,0.68,0.21,1.21,0.55,1.57c0.35,0.37,0.84,0.55,1.47,0.55c0.41,0,0.8-0.04,1.16-0.12c0.36-0.08,0.74-0.21,1.15-0.39v1.21
				c-0.36,0.17-0.73,0.3-1.1,0.37C91.33,56.49,90.9,56.53,90.42,56.53z M90.15,50.38c-0.47,0-0.85,0.15-1.14,0.45
				c-0.29,0.3-0.46,0.74-0.51,1.31h3.19c-0.01-0.58-0.15-1.02-0.42-1.32C91,50.53,90.62,50.38,90.15,50.38z"/>
			<path fill="white" d="M99.56,54.4c0,0.69-0.25,1.21-0.75,1.58s-1.21,0.55-2.15,0.55c-0.94,0-1.69-0.14-2.25-0.43v-1.29
				c0.83,0.38,1.59,0.57,2.3,0.57c0.92,0,1.38-0.28,1.38-0.83c0-0.18-0.05-0.33-0.15-0.44c-0.1-0.12-0.27-0.24-0.5-0.37
				s-0.56-0.27-0.97-0.43c-0.81-0.31-1.36-0.63-1.64-0.94c-0.29-0.31-0.43-0.72-0.43-1.22c0-0.6,0.24-1.07,0.73-1.4
				c0.48-0.33,1.14-0.5,1.98-0.5c0.83,0,1.61,0.17,2.34,0.5l-0.48,1.12c-0.76-0.31-1.39-0.47-1.91-0.47c-0.79,0-1.18,0.22-1.18,0.67
				c0,0.22,0.1,0.41,0.31,0.56c0.21,0.15,0.65,0.36,1.34,0.63c0.58,0.22,1,0.43,1.26,0.62s0.46,0.4,0.58,0.64
				S99.56,54.06,99.56,54.4z"/>
			<path fill="white" d="M103.79,55.32c0.36,0,0.73-0.06,1.09-0.17v1.12c-0.17,0.07-0.38,0.13-0.64,0.18c-0.26,0.05-0.53,0.07-0.81,0.07
				c-1.41,0-2.12-0.75-2.12-2.23v-3.78h-0.96v-0.66l1.03-0.55l0.51-1.49h0.92v1.56h2v1.13h-2v3.76c0,0.36,0.09,0.62,0.27,0.8
				C103.26,55.24,103.5,55.32,103.79,55.32z"/>
			<path fill="white" d="M109.35,56.53c-1.09,0-1.95-0.32-2.56-0.96c-0.62-0.64-0.92-1.51-0.92-2.63c0-1.15,0.29-2.05,0.86-2.71
				c0.57-0.66,1.36-0.98,2.35-0.98c0.93,0,1.66,0.28,2.2,0.84c0.54,0.56,0.81,1.34,0.81,2.32v0.81h-4.68
				c0.02,0.68,0.21,1.21,0.55,1.57s0.84,0.55,1.47,0.55c0.41,0,0.8-0.04,1.16-0.12c0.36-0.08,0.74-0.21,1.15-0.39v1.21
				c-0.36,0.17-0.73,0.3-1.1,0.37C110.26,56.49,109.83,56.53,109.35,56.53z M109.08,50.38c-0.47,0-0.85,0.15-1.14,0.45
				c-0.29,0.3-0.46,0.74-0.51,1.31h3.19c-0.01-0.58-0.15-1.02-0.42-1.32C109.93,50.53,109.55,50.38,109.08,50.38z"/>
			<path fill="white" d="M119.95,56.4h-1.5v-4.32c0-0.54-0.11-0.95-0.33-1.21c-0.22-0.27-0.56-0.4-1.04-0.4c-0.63,0-1.09,0.19-1.38,0.56
				s-0.44,1-0.44,1.87v3.5h-1.49v-7.02h1.17l0.21,0.92h0.08c0.21-0.33,0.51-0.59,0.9-0.78c0.39-0.18,0.82-0.27,1.29-0.27
				c1.68,0,2.53,0.86,2.53,2.57V56.4z"/>
			<path fill="white" d="M125.09,56.53c-1.09,0-1.95-0.32-2.56-0.96c-0.62-0.64-0.92-1.51-0.92-2.63c0-1.15,0.29-2.05,0.86-2.71
				c0.57-0.66,1.36-0.98,2.36-0.98c0.93,0,1.66,0.28,2.2,0.84c0.54,0.56,0.81,1.34,0.81,2.32v0.81h-4.68
				c0.02,0.68,0.21,1.21,0.55,1.57c0.35,0.37,0.83,0.55,1.47,0.55c0.42,0,0.8-0.04,1.16-0.12s0.74-0.21,1.15-0.39v1.21
				c-0.36,0.17-0.73,0.3-1.1,0.37C126,56.49,125.57,56.53,125.09,56.53z M124.82,50.38c-0.47,0-0.85,0.15-1.14,0.45
				c-0.29,0.3-0.46,0.74-0.51,1.31h3.19c-0.01-0.58-0.15-1.02-0.42-1.32C125.67,50.53,125.29,50.38,124.82,50.38z"/>
			<path fill="white" d="M134.24,54.4c0,0.69-0.25,1.21-0.75,1.58c-0.5,0.37-1.21,0.55-2.14,0.55c-0.94,0-1.69-0.14-2.25-0.43v-1.29
				c0.83,0.38,1.59,0.57,2.3,0.57c0.92,0,1.38-0.28,1.38-0.83c0-0.18-0.05-0.33-0.15-0.44c-0.1-0.12-0.27-0.24-0.5-0.37
				c-0.23-0.13-0.56-0.27-0.97-0.43c-0.81-0.31-1.36-0.63-1.64-0.94c-0.29-0.31-0.43-0.72-0.43-1.22c0-0.6,0.24-1.07,0.73-1.4
				s1.14-0.5,1.98-0.5c0.83,0,1.61,0.17,2.34,0.5l-0.48,1.12c-0.76-0.31-1.39-0.47-1.91-0.47c-0.79,0-1.18,0.22-1.18,0.67
				c0,0.22,0.1,0.41,0.31,0.56s0.65,0.36,1.34,0.63c0.58,0.22,1,0.43,1.26,0.62c0.26,0.19,0.46,0.4,0.58,0.64
				S134.24,54.06,134.24,54.4z"/>
			<path fill="white" d="M138.46,55.32c0.36,0,0.73-0.06,1.09-0.17v1.12c-0.17,0.07-0.38,0.13-0.64,0.18c-0.26,0.05-0.53,0.07-0.81,0.07
				c-1.41,0-2.12-0.75-2.12-2.23v-3.78h-0.96v-0.66l1.03-0.55l0.51-1.49h0.92v1.56h2v1.13h-2v3.76c0,0.36,0.09,0.62,0.27,0.8
				C137.93,55.24,138.17,55.32,138.46,55.32z"/>
			<path fill="white" d="M144.02,56.53c-1.09,0-1.95-0.32-2.56-0.96c-0.62-0.64-0.92-1.51-0.92-2.63c0-1.15,0.29-2.05,0.86-2.71
				c0.57-0.66,1.36-0.98,2.36-0.98c0.93,0,1.66,0.28,2.2,0.84c0.54,0.56,0.81,1.34,0.81,2.32v0.81h-4.68
				c0.02,0.68,0.21,1.21,0.55,1.57c0.35,0.37,0.83,0.55,1.47,0.55c0.42,0,0.8-0.04,1.16-0.12s0.74-0.21,1.15-0.39v1.21
				c-0.36,0.17-0.73,0.3-1.1,0.37C144.93,56.49,144.5,56.53,144.02,56.53z M143.75,50.38c-0.47,0-0.85,0.15-1.14,0.45
				c-0.29,0.3-0.46,0.74-0.51,1.31h3.19c-0.01-0.58-0.15-1.02-0.42-1.32C144.6,50.53,144.22,50.38,143.75,50.38z"/>
			<path fill="white" d="M152.01,49.25c0.3,0,0.55,0.02,0.74,0.06l-0.15,1.39c-0.21-0.05-0.43-0.08-0.66-0.08c-0.6,0-1.08,0.19-1.45,0.58
				c-0.37,0.39-0.55,0.89-0.55,1.52v3.67h-1.49v-7.02h1.17l0.2,1.24h0.08c0.23-0.42,0.54-0.75,0.91-1
				C151.17,49.38,151.58,49.25,152.01,49.25z"/>
		</g>
	</g>
</g>
<path fill="white" d="M58.87,46.33c-0.32-0.19-0.67-0.28-1.02-0.29v-3.06c1.22-0.05,2.19-1.05,2.19-2.28c0-1.26-1.03-2.29-2.29-2.29
	c-0.38,0-0.73,0.1-1.05,0.27l-1.47-2.54c1.01-0.66,1.35-2,0.74-3.05c-0.63-1.1-2.03-1.47-3.13-0.84c-0.32,0.19-0.57,0.44-0.76,0.73
	l-2.61-1.52c0.55-1.08,0.17-2.41-0.89-3.02c-1.1-0.63-2.5-0.26-3.13,0.84c-0.19,0.32-0.28,0.67-0.29,1.02h-3.02
	c-0.06-1.22-1.05-2.19-2.28-2.19c-1.26,0-2.29,1.03-2.29,2.29c0,0.37,0.1,0.72,0.26,1.04l-2.62,1.49c-0.66-1.02-2-1.36-3.06-0.75
	c-1.1,0.63-1.47,2.03-0.84,3.13c0.18,0.32,0.44,0.57,0.73,0.76l-1.52,2.61c-1.08-0.55-2.41-0.17-3.02,0.89
	c-0.63,1.1-0.26,2.5,0.84,3.13c0.32,0.19,0.67,0.28,1.02,0.29v3.05c-1.2,0.07-2.15,1.06-2.15,2.28c0,1.26,1.03,2.29,2.29,2.29
	c0.37,0,0.71-0.09,1.01-0.25L32,52.94c-1.01,0.66-1.35,2-0.74,3.06c0.63,1.1,2.03,1.47,3.13,0.84c0.32-0.18,0.57-0.44,0.76-0.73
	l2.61,1.52c-0.55,1.08-0.17,2.41,0.89,3.02c1.1,0.63,2.5,0.26,3.13-0.84c0.19-0.32,0.28-0.67,0.29-1.02h3.02
	c0.06,1.22,1.05,2.19,2.28,2.19c1.26,0,2.29-1.03,2.29-2.29c0-0.38-0.1-0.72-0.26-1.04l2.62-1.49c0.66,1.02,2,1.36,3.06,0.75
	c1.1-0.63,1.47-2.03,0.84-3.13c-0.19-0.32-0.45-0.58-0.74-0.77l1.53-2.65c1.08,0.55,2.4,0.17,3.01-0.89
	C60.34,48.36,59.97,46.96,58.87,46.33z M55.75,47.17c-0.2,0.34-0.28,0.71-0.3,1.07h-2.93c-0.04-0.75-0.44-1.46-1.14-1.86
	c-0.32-0.19-0.67-0.28-1.02-0.29v-3.1c0.35-0.02,0.7-0.11,1.02-0.29c0.7-0.4,1.1-1.11,1.14-1.86h2.95c0.07,1.15,0.98,2.06,2.13,2.14
	v3.06C56.86,46.07,56.15,46.47,55.75,47.17z M48.33,47.11l-2.68-1.55c0.16-0.31,0.26-0.66,0.26-1.03s-0.1-0.72-0.26-1.03l2.68-1.55
	c0.41,0.63,1.08,1,1.78,1.04v3.08C49.41,46.12,48.74,46.49,48.33,47.11z M48.2,41.74l-2.68,1.55c-0.39-0.59-1.04-0.99-1.79-1.03
	v-3.1c0.75-0.04,1.4-0.43,1.79-1.03l2.67,1.54C47.88,40.31,47.86,41.07,48.2,41.74z M43.48,39.16v3.1c-0.75,0.04-1.4,0.44-1.79,1.03
	l-2.68-1.55c0.34-0.67,0.32-1.43,0.01-2.06l2.67-1.54C42.08,38.72,42.74,39.12,43.48,39.16z M38.89,41.96l2.68,1.55
	c-0.16,0.31-0.26,0.66-0.26,1.03c0,0.37,0.1,0.72,0.25,1.03l-2.68,1.55c-0.41-0.63-1.08-1-1.79-1.04v-3.08
	C37.82,42.95,38.48,42.58,38.89,41.96z M39.02,47.33l2.68-1.55c0.39,0.59,1.04,0.99,1.79,1.03v3.1c-0.75,0.04-1.4,0.44-1.79,1.03
	l-2.67-1.54C39.34,48.76,39.36,48,39.02,47.33z M43.73,49.91v-3.1c0.75-0.04,1.4-0.43,1.79-1.03l2.68,1.55
	c-0.34,0.67-0.32,1.43-0.01,2.06l-2.67,1.54C45.14,50.34,44.48,49.95,43.73,49.91z M55.47,40.58h-2.96
	c-0.02-0.35-0.11-0.7-0.29-1.02c-0.19-0.32-0.44-0.57-0.74-0.77l1.47-2.54c0.63,0.32,1.4,0.33,2.07-0.01l1.47,2.54
	C55.9,39.18,55.51,39.84,55.47,40.58z M52,35.37c0.19,0.32,0.44,0.57,0.73,0.76l-1.47,2.54c-0.67-0.34-1.48-0.34-2.18,0.06
	c-0.32,0.19-0.57,0.44-0.76,0.74l-2.68-1.55c0.16-0.31,0.26-0.66,0.26-1.03c0-0.79-0.41-1.49-1.02-1.9l1.5-2.54
	c1.04,0.54,2.32,0.21,2.96-0.77l2.6,1.51C51.61,33.85,51.6,34.67,52,35.37z M46.17,32.31l-1.51,2.55c-0.32-0.16-0.67-0.27-1.05-0.27
	c-0.37,0-0.72,0.1-1.03,0.26l-1.47-2.54c0.59-0.38,0.98-1.03,1.03-1.77h3.01C45.19,31.24,45.55,31.9,46.17,32.31z M39.87,32.68
	c0.37,0,0.71-0.1,1.02-0.25l1.47,2.54c-0.62,0.41-1.04,1.11-1.04,1.91c0,0.37,0.1,0.72,0.25,1.03l-2.68,1.55
	c-0.19-0.29-0.44-0.55-0.76-0.74c-0.69-0.4-1.5-0.4-2.16-0.07l-1.45-2.57c0.99-0.63,1.34-1.9,0.81-2.94l2.62-1.49
	C38.36,32.27,39.06,32.68,39.87,32.68z M34.3,36.21l1.45,2.58c-0.3,0.19-0.57,0.45-0.76,0.78c-0.19,0.32-0.28,0.67-0.29,1.02h-2.93
	c-0.04-0.7-0.41-1.37-1.03-1.78l1.51-2.6C32.88,36.52,33.64,36.54,34.3,36.21z M31.48,41.85c0.19-0.32,0.28-0.67,0.29-1.02h2.93
	c0.04,0.75,0.44,1.46,1.14,1.86c0.32,0.19,0.67,0.28,1.02,0.29v3.1c-0.35,0.02-0.7,0.11-1.02,0.29c-0.69,0.4-1.09,1.1-1.14,1.84
	l-2.92-0.02c-0.06-1.17-0.99-2.11-2.17-2.17v-3.04C30.36,42.95,31.07,42.55,31.48,41.85z M31.78,48.45l2.93,0.02
	c0.02,0.35,0.11,0.71,0.29,1.03c0.19,0.32,0.44,0.57,0.74,0.76l-1.47,2.54c-0.63-0.32-1.39-0.33-2.06,0l-1.48-2.57
	C31.34,49.86,31.74,49.2,31.78,48.45z M35.22,53.7c-0.19-0.32-0.44-0.57-0.74-0.76l1.47-2.54c0.67,0.34,1.48,0.34,2.18-0.06
	c0.32-0.19,0.57-0.44,0.76-0.74l2.68,1.55c-0.16,0.31-0.25,0.66-0.25,1.03c0,0.79,0.4,1.49,1.02,1.9l-1.5,2.54
	c-1.04-0.54-2.32-0.2-2.96,0.77l-2.6-1.51C35.62,55.22,35.62,54.4,35.22,53.7z M41.05,56.76l1.51-2.55
	c0.32,0.17,0.67,0.27,1.05,0.27c0.37,0,0.72-0.1,1.03-0.26l1.47,2.54c-0.59,0.38-0.98,1.03-1.03,1.77h-3.01
	C42.03,57.83,41.67,57.17,41.05,56.76z M47.36,56.38c-0.37,0-0.71,0.1-1.02,0.25l-1.47-2.54c0.62-0.41,1.04-1.11,1.04-1.91
	c0-0.37-0.1-0.72-0.26-1.03l2.68-1.55c0.19,0.29,0.44,0.55,0.76,0.74c0.69,0.4,1.49,0.4,2.16,0.07l1.45,2.57
	c-0.99,0.63-1.33,1.9-0.81,2.94l-2.62,1.49C48.86,56.8,48.16,56.38,47.36,56.38z M52.92,52.86l-1.45-2.58
	c0.3-0.19,0.57-0.45,0.76-0.78c0.19-0.32,0.28-0.67,0.29-1.02h2.93c0.05,0.69,0.42,1.33,1.03,1.73l-1.53,2.65
	C54.33,52.55,53.58,52.54,52.92,52.86z"/>
</svg>
