<svg width="71" height="71" viewBox="0 0 71 71" fill="none" xmlns="http://www.w3.org/2000/svg">
<path d="M35.2647 70.7647C54.7409 70.7647 70.5294 54.9762 70.5294 35.5C70.5294 16.0238 54.7409 0.235291 35.2647 0.235291C15.7885 0.235291 0 16.0238 0 35.5C0 54.9762 15.7885 70.7647 35.2647 70.7647Z" fill="#020203"/>
<path d="M33.5341 17.5431C33.5341 17.5431 31.5869 17.3268 31.1542 17.3268C30.7215 17.3268 30.0725 16.8941 30.0725 16.6778C30.0725 16.4614 30.0725 16.0287 30.5052 16.2451C30.9511 16.5467 31.4816 16.6982 32.0196 16.6778C32.3841 16.7286 32.7453 16.8008 33.1014 16.8941L33.5341 17.5431ZM16.4426 20.7884C17.4421 19.3552 18.6873 18.11 20.1205 17.1105C20.6133 16.9708 21.1227 16.898 21.6349 16.8941V20.1393C21.2789 20.046 20.9177 19.9738 20.5532 19.923C20.1205 19.923 18.8224 20.1393 18.8224 20.1393L18.3897 20.572C18.6413 20.4862 18.9097 20.4611 19.1728 20.4987C19.436 20.5363 19.6866 20.6356 19.9041 20.7884C19.9041 21.0047 20.1205 21.8701 20.3368 21.8701C20.5532 21.8701 21.6349 22.0865 21.6349 22.0865V22.5192C20.9205 22.6295 20.2484 22.9282 19.6878 23.3845C19.3461 23.7793 19.0553 24.2154 18.8224 24.6826L18.6061 25.3317L18.8224 25.548C18.8224 25.548 19.2551 24.899 19.4714 24.899C19.9041 24.4663 20.3368 25.1153 20.5532 25.1153C20.7695 25.1153 20.9859 24.899 21.2022 24.6826L21.4186 24.4663V35.7164C21.0479 35.631 20.6633 35.6254 20.2903 35.7C19.9173 35.7746 19.5644 35.9277 19.2551 36.1491C19.0842 36.3464 18.9389 36.5645 18.8224 36.7981H20.1205C20.3368 36.7981 20.7695 37.8799 20.7695 38.0962H21.4186V39.3943C21.3021 39.6279 21.1567 39.846 20.9859 40.0433C20.7695 40.476 20.3368 41.7741 20.3368 41.7741L20.5532 42.2068C20.6593 42.0033 20.7323 41.7842 20.7695 41.5578C20.9859 41.1251 21.2022 41.1251 21.2022 41.1251V44.5866H22.284V40.9087L22.7167 41.1251C23.1141 40.4972 23.4753 39.8471 23.7984 39.1779C24.0928 39.2237 24.3825 39.2961 24.6638 39.3943L25.0965 41.1251H25.3128L33.3177 29.875L33.9668 30.3077L30.7215 34.851C31.1542 35.5 31.5869 35.9327 31.8033 36.3654C32.1044 37.2074 32.3218 38.077 32.4523 38.9616V39.1779C31.1211 39.9692 29.8868 40.9131 28.7744 41.9905C28.225 42.3683 27.7174 42.8034 27.26 43.2886C26.7187 45.4807 26.5722 47.7518 26.8273 49.9953C26.8273 50.428 27.4763 51.0771 27.4763 51.0771C27.3102 51.0928 27.1559 51.17 27.0436 51.2934L25.7455 52.5915C24.7928 53.6564 23.7816 54.6676 22.7167 55.6204C22.276 55.6093 21.839 55.5365 21.4186 55.404V54.1059C21.4509 53.801 21.3743 53.4944 21.2022 53.2406C20.9859 52.8079 20.5532 52.1588 20.5532 52.1588L19.4714 51.2934H18.8224L19.4714 51.9425C19.6878 52.1588 19.4714 52.5915 19.4714 52.5915C19.2437 52.83 19.0929 53.1316 19.0388 53.4569C19.0388 53.6733 20.1205 54.755 20.1205 54.755L19.9041 54.9713C19.9041 54.9713 19.2551 54.5386 18.8224 54.3223L18.3897 54.1059C18.1734 54.1059 17.308 54.3223 17.0916 54.3223C16.8753 54.3223 16.0099 55.1877 16.0099 55.1877V55.8367C16.1266 55.7192 16.2786 55.6432 16.4426 55.6204C16.6589 55.6204 16.8753 55.404 17.308 55.404C17.3653 55.404 17.4204 55.4268 17.4609 55.4674C17.5015 55.508 17.5243 55.563 17.5243 55.6204C17.6862 55.946 17.9061 56.2392 18.1734 56.4858C18.3897 56.4858 19.9041 56.2694 19.9041 56.2694L20.1205 56.4858C19.6041 56.732 19.1578 57.104 18.8224 57.5675C18.6061 57.7839 19.2551 58.6493 19.2551 58.6493C19.2551 59.0819 18.1734 59.5146 18.1734 59.5146H18.8224C19.2551 59.2983 19.6878 59.2983 19.9041 59.0819L20.7695 58.2166L20.9859 57.3512C20.9859 56.9185 21.4186 57.1348 22.0676 57.1348C22.7167 57.1348 22.5003 57.1348 22.5003 57.3512C22.5161 57.5173 22.5932 57.6716 22.7167 57.7839C22.7624 58.0783 22.8348 58.3679 22.933 58.6493H23.1494C23.1494 58.6493 24.4474 56.9185 24.6638 56.9185C24.8801 56.9185 29.8561 53.2406 29.8561 53.2406C30.23 53.2742 30.6057 53.1991 30.9379 53.0242C31.4 52.7004 31.8342 52.3386 32.236 51.9425V50.8607C32.2155 50.3227 32.3671 49.7922 32.6687 49.3463C32.885 48.9136 33.5341 48.2645 33.7504 47.8319L33.9668 47.6155C33.4241 46.9968 32.9184 46.3466 32.4523 45.6684C32.2663 45.4249 32.1482 45.1363 32.1102 44.8322C32.0722 44.5281 32.1156 44.2194 32.236 43.9376C33.3177 40.2597 33.9668 37.8799 33.9668 37.6635V36.1491L34.8321 36.7981V38.0962C34.6461 39.2733 34.3565 40.4316 33.9668 41.5578C33.5341 43.2886 32.885 44.803 33.3177 45.2357C34.1555 46.4659 35.177 47.5603 36.3466 48.4809C38.0628 48.7571 39.8057 48.8297 41.5389 48.6972C44.3514 49.1299 44.3515 49.1299 44.5678 49.5626C44.7841 49.9953 46.5149 51.7261 46.9476 52.1588C47.7545 53.1044 48.4783 54.1178 49.1111 55.1877L48.0294 55.404C47.4641 54.7998 46.807 54.2887 46.0822 53.8896C45.2168 53.4569 44.3515 53.8896 43.9188 53.8896C43.7265 53.9001 43.5417 53.9673 43.3876 54.0829C43.2336 54.1984 43.1173 54.357 43.0534 54.5386C43.4861 54.5386 44.1351 54.5386 44.3514 54.755C44.5678 54.9713 44.5678 55.6204 44.7841 55.6204C45.0005 55.6204 46.0822 55.8367 46.0822 55.8367V56.2694C45.8659 56.2694 44.7841 56.4858 44.3514 56.4858C44.1039 56.5766 43.8815 56.7249 43.7024 56.9185C43.3788 57.4024 43.0896 57.9084 42.837 58.4329L43.0534 59.5146C43.0534 59.2983 44.1351 58.6493 44.1351 58.6493C44.2199 58.7994 44.3475 58.9207 44.5017 58.9978C44.6559 59.0749 44.8296 59.1042 45.0005 59.0819C45.5891 58.7579 46.1047 58.316 46.5149 57.7839L46.9476 58.0002L46.5149 58.6493C45.8659 59.2983 46.2986 60.8127 46.2986 60.8127C46.4626 60.8356 46.6146 60.9116 46.7313 61.0291C46.5149 60.5964 47.164 59.731 47.164 59.731C47.3444 59.8117 47.5455 59.8343 47.7394 59.7955C47.9332 59.7567 48.1102 59.6586 48.2457 59.5146C48.6784 59.2983 48.6784 57.5675 48.6784 57.5675L50.6255 57.1348L53.0054 57.5675L53.2217 57.1348L52.789 56.7021C52.14 55.6204 51.9236 55.404 51.7073 54.9713C51.0582 53.4569 48.6784 49.3463 48.6784 49.1299V48.2645C48.3367 47.6247 47.8989 47.041 47.3803 46.5338C47.0058 46.2529 46.5504 46.1011 46.0822 46.1011C45.1334 45.5714 44.2602 44.9165 43.4861 44.1539C42.6032 43.0949 41.6644 42.0839 40.6735 41.1251L38.5101 39.1779L39.3754 38.9616C39.3754 38.9616 41.1062 40.476 41.3226 40.6924C42.0447 41.3012 42.8451 41.8105 43.7024 42.2068C45.3221 43.5036 47.2689 44.3273 49.3275 44.5866C50.0516 44.6835 50.7886 44.5955 51.4695 44.3306C52.1505 44.0658 52.7533 43.6329 53.2217 43.0722C53.7797 42.3629 54.083 41.4867 54.083 40.5842C54.083 39.6817 53.7797 38.8055 53.2217 38.0962C52.789 37.4472 51.0582 35.0673 51.0582 35.0673L54.5198 33.1202V32.6875L53.0054 33.1202C52.5056 33.0165 51.9998 32.9442 51.4909 32.9039H51.0582L49.9765 33.1202V32.6875L54.7362 30.0913V29.4423C54.7362 29.4423 53.2217 29.875 53.0054 29.875C52.789 29.875 51.7073 29.6586 51.2746 29.6586H50.6255L49.5438 29.875V29.4423L54.9525 26.4134L55.1688 25.9807L53.8708 26.8461C53.8708 26.8461 52.3563 26.4134 52.3563 26.6298L51.2746 26.8461H51.0582C51.0582 26.6298 53.0054 24.2499 53.0054 24.0336C53.7079 23.2096 54.3582 22.3426 54.9525 21.4374C57.116 17.9758 55.8179 15.8124 55.3852 15.3797C54.8327 14.5439 54.0437 13.8917 53.1189 13.5063C52.194 13.121 51.1753 13.02 50.1928 13.2162C49.3676 13.4766 48.6484 13.9961 48.1418 14.6976C47.6351 15.3991 47.3681 16.2452 47.3803 17.1105C47.3803 17.3268 47.3803 17.5431 46.9476 17.7595C46.2507 18.7728 45.6701 19.8614 45.2168 21.0047H45.8659L47.164 19.7066C47.3803 19.4903 47.3803 19.923 47.3803 20.1393C47.1203 21.1473 46.6806 22.1 46.0822 22.9518C45.2855 24.2809 44.5632 25.6532 43.9188 27.0625H44.5678C45.9489 25.471 47.5519 24.0866 49.3275 22.9518C49.9765 22.3028 49.3275 19.923 49.3275 19.923L49.9765 20.1393C50.0753 20.656 50.2201 21.1628 50.4092 21.6538V23.1682L50.8419 22.7355C51.5055 21.2397 51.6575 19.5668 51.2746 17.9758C51.0582 17.3268 49.5438 16.6778 49.5438 16.6778C49.4966 16.3252 49.5306 15.9665 49.6431 15.6291C49.7556 15.2917 49.9436 14.9844 50.1928 14.7306C50.5572 14.4327 50.9848 14.2218 51.443 14.114C51.9012 14.0062 52.3779 14.0045 52.8369 14.1088C53.2959 14.2131 53.7251 14.4208 54.0917 14.716C54.4583 15.0112 54.7527 15.3862 54.9525 15.8124C56.2506 18.4085 53.6544 21.4374 53.0054 21.8701C51.4909 23.3845 47.813 26.6298 47.5967 27.0625C45.0005 30.0913 46.0822 31.8221 46.5149 32.6875C47.9194 34.3755 49.4374 35.9657 51.0582 37.4472C51.9285 38.1766 52.6612 39.0558 53.2217 40.0433C54.0871 43.0722 51.0582 43.5049 49.7601 43.2886C47.2363 42.225 44.899 40.7642 42.837 38.9616C40.4572 37.4472 39.8081 37.8799 39.8081 37.4472C39.5918 35.7164 39.3754 29.4423 39.3754 29.4423C39.3754 29.4423 39.5918 29.4423 39.8081 29.4423C40.0245 29.4423 40.2408 29.6586 40.2408 29.4423V27.7115C40.4887 27.0452 40.7777 26.3949 41.1062 25.7644C41.9704 24.0967 42.6941 22.3599 43.2697 20.572C43.3885 19.4935 43.3885 18.4053 43.2697 17.3268C43.4861 17.1105 44.1351 16.0287 44.3514 16.0287V14.7306C44.165 14.5888 43.9367 14.5127 43.7024 14.5143H43.4861L45.2168 11.9181C45.0005 11.9181 45.0005 11.7018 44.7841 11.9181C44.4561 11.9638 44.1522 12.1158 43.9188 12.3508C43.4406 12.1257 42.9292 11.9795 42.4043 11.9181C41.5389 12.1344 41.7553 12.7835 41.7553 12.7835C41.9716 13.4325 42.6207 13.2162 42.837 13.2162L42.188 13.8652L39.8081 13.4325L39.5918 12.7835L40.0245 12.9998C40.1933 12.9896 40.3525 12.9179 40.472 12.7983C40.5916 12.6788 40.6633 12.5196 40.6735 12.3508C40.6765 12.2363 40.6562 12.1225 40.6137 12.0161C40.5713 11.9098 40.5077 11.8132 40.4267 11.7323C40.3457 11.6513 40.2491 11.5877 40.1428 11.5452C40.0365 11.5028 39.9226 11.4824 39.8081 11.4854C39.8081 10.8364 39.3755 10.8364 39.1591 10.8364C38.989 10.8222 38.8184 10.855 38.6657 10.9314C38.5131 11.0077 38.3844 11.1245 38.2937 11.2691H38.0774C37.9764 11.2332 37.8682 11.2228 37.7623 11.2389C37.6564 11.255 37.5562 11.2971 37.4705 11.3614C37.3848 11.4256 37.3164 11.5101 37.2713 11.6072C37.2262 11.7044 37.2058 11.8112 37.212 11.9181C37.4283 12.9998 38.2937 12.5671 38.2937 12.5671L37.861 13.2162L35.4812 12.7835L35.6975 11.9181C35.8142 12.0356 35.9662 12.1116 36.1302 12.1344C36.2311 12.1703 36.3394 12.1807 36.4453 12.1646C36.5512 12.1485 36.6514 12.1064 36.7371 12.0421C36.8228 11.9779 36.8912 11.8934 36.9363 11.7963C36.9814 11.6991 37.0018 11.5923 36.9956 11.4854C36.9956 10.1873 35.6975 10.8364 35.6975 10.8364C35.0485 10.1873 34.8321 10.4037 34.8321 10.4037L35.4812 13.4325C34.8514 14.0326 34.2725 14.6839 33.7504 15.3797C33.7504 15.596 33.9668 16.6778 33.9668 16.6778L34.6158 17.7595L33.9668 18.6249L37.212 19.0576L36.7793 20.1393C35.241 20.4839 33.7241 20.9174 32.236 21.4374C31.2654 22.1908 30.3932 23.063 29.6398 24.0336C29.2071 24.4663 28.3417 28.3605 27.26 30.3077H29.2071L25.5292 37.6635L25.0965 37.4472C25.0965 37.4472 25.3128 35.7164 25.3128 35.5C25.3128 35.2837 25.0965 34.2019 25.0965 34.2019C24.7813 33.7333 24.4188 33.2983 24.0148 32.9039H23.3657C23.6374 33.2831 23.7883 33.7355 23.7984 34.2019C23.7984 34.6346 23.5821 34.6346 23.3657 34.851C23.2423 34.9633 23.1651 35.1176 23.1494 35.2837L23.7984 36.7981H23.3657C23.2163 36.5238 22.991 36.2984 22.7167 36.1491V23.3845L23.5821 23.8172L23.1494 24.4663L24.4474 24.6826L27.26 27.2788L28.3417 24.2499L25.3128 22.7355L24.8801 21.8701L24.0148 22.0865C23.9919 21.9224 23.9159 21.7705 23.7984 21.6538C24.2311 21.2211 24.8801 20.3557 25.0965 20.1393C25.0628 19.7654 25.1379 19.3898 25.3128 19.0576C25.2781 18.6195 25.2057 18.1852 25.0965 17.7595L24.6638 17.3268C24.7603 17.8417 24.6843 18.374 24.4474 18.8412C24.2813 18.857 24.127 18.9341 24.0148 19.0576C23.9574 19.0576 23.9023 19.0804 23.8618 19.1209C23.8212 19.1615 23.7984 19.2166 23.7984 19.2739L23.5821 20.7884L23.1494 20.3557V16.4614H23.5821V14.0816H22.933V12.9998H21.8513V14.0816H20.3368C18.2385 13.3377 16.3215 12.1579 14.7118 10.62C14.3201 14.1048 14.92 17.6294 16.4426 20.7884ZM37.861 17.1105L38.0774 17.9758L35.0485 17.5431L34.8321 16.6778L37.861 17.1105ZM34.8321 15.3797L34.6158 14.7306L35.6975 13.6489L41.7553 14.7306H41.9716L40.8899 15.3797C39.655 14.8574 38.3354 14.5642 36.9956 14.5143C36.9956 14.5143 37.4283 15.1633 36.3466 15.596C36.1302 15.596 35.2648 15.8124 35.2648 14.947L34.8321 15.3797ZM41.9716 15.8124C42.188 15.8124 42.4043 15.3797 42.6207 15.3797C42.7847 15.4025 42.9367 15.4785 43.0534 15.596V16.0287C42.8767 16.3449 42.6584 16.636 42.4043 16.8941C42.4043 16.0287 41.9716 15.8124 41.9716 15.8124ZM30.0725 26.8461C30.0725 26.8461 31.3706 23.8172 32.0196 23.6009C32.8548 23.2779 33.7269 23.0599 34.6158 22.9518L34.3994 23.8172C33.7302 23.9675 33.0779 24.185 32.4523 24.4663C31.8505 25.2362 31.4091 26.119 31.1542 27.0625L30.0725 26.8461ZM22.7167 38.7452V38.0962H23.5821V38.5289L22.7167 38.7452Z" fill="white"/>
</svg>
